# xmcd
#
# Track frame offsets:
#	150
#	12374
#	28628
#	45029
#	61051
#	77945
#	94811
#
# Disc length: 1442 seconds
#
# Revision: 1
# Processed by: cddbd v1.5.2PL0 Copyright (c) Steve Scherf et al.
# Submitted via: audiograbber 1.83.01
#
DISCID=4605a007
DTITLE=Various Artist - CDX 660
DYEAR=2018
DGENRE=Country
TTITLE0=Rodney Atkins - Caught Up In The Country
TTITLE1=Keith Urban ft .Julia Michaels - Coming Home
TTITLE2=Homer Hart - Buckle Up
TTITLE3=Smith and Wesley - Hook Line and Sinker
TTITLE4=Sara Spicer - Jump
TTITLE5=Lefroy - Mexican Gateway
TTITLE6=Shane Owens - Lie
EXTD=
EXTT0=
EXTT1=
EXTT2=
EXTT3=
EXTT4=
EXTT5=
EXTT6=
PLAYORDER=
